<svg display="none" xmlns="http://www.w3.org/2000/svg">
    <symbol id="bell" viewBox="0 0 40 40">
        <g>
            <path
                d="M21.73 29C21.5542 29.3031 21.3018 29.5547 20.9982 29.7295C20.6946 29.9044 20.3504 29.9965 20 29.9965C19.6496 29.9965 19.3054 29.9044 19.0018 29.7295C18.6982 29.5547 18.4458 29.3031 18.27 29M30 25H10C10.7956 25 11.5587 24.6839 12.1213 24.1213C12.6839 23.5587 13 22.7956 13 22V17C13 15.1435 13.7375 13.363 15.0503 12.0503C16.363 10.7375 18.1435 10 20 10C21.8565 10 23.637 10.7375 24.9497 12.0503C26.2625 13.363 27 15.1435 27 17V22C27 22.7956 27.3161 23.5587 27.8787 24.1213C28.4413 24.6839 29.2044 25 30 25V25Z"
                stroke="#5C5C5C" stroke-width="2" stroke-linecap="round" stroke-linejoin="round" />
            <!-- <circle cx="26.5" cy="11.5" r="4.5" fill="#E84393"/> -->

        </g>
    </symbol>
    <symbol id="logout" viewBox="0 0 40 40">
        <g>
            <path
                d="M17 29H13C12.4696 29 11.9609 28.7893 11.5858 28.4142C11.2107 28.0391 11 27.5304 11 27V13C11 12.4696 11.2107 11.9609 11.5858 11.5858C11.9609 11.2107 12.4696 11 13 11H17"
                stroke="#5C5C5C" stroke-width="2" stroke-linecap="round" stroke-linejoin="round" />
            <path d="M24 25L29 20L24 15" stroke="#5C5C5C" stroke-width="2" stroke-linecap="round"
                stroke-linejoin="round" />
            <path d="M29 20H17" stroke="#5C5C5C" stroke-width="2" stroke-linecap="round" stroke-linejoin="round" />

        </g>
    </symbol>
    <symbol id="navigation" viewBox="0 0 40 40">
        <g>
            <path d="M10 19L29 10L20 29L18 21L10 19Z" stroke="white" stroke-width="2" stroke-linecap="round"
                stroke-linejoin="round" />
        </g>
    </symbol>
    <symbol id="dollar" viewBox="0 0 40 40">
        <g>
            <path d="M20 9V31" stroke="white" stroke-width="2" stroke-linecap="round" stroke-linejoin="round" />
            <path
                d="M25 13H17.5C16.5717 13 15.6815 13.3687 15.0251 14.0251C14.3687 14.6815 14 15.5717 14 16.5C14 17.4283 14.3687 18.3185 15.0251 18.9749C15.6815 19.6313 16.5717 20 17.5 20H22.5C23.4283 20 24.3185 20.3687 24.9749 21.0251C25.6313 21.6815 26 22.5717 26 23.5C26 24.4283 25.6313 25.3185 24.9749 25.9749C24.3185 26.6313 23.4283 27 22.5 27H14"
                stroke="white" stroke-width="2" stroke-linecap="round" stroke-linejoin="round" />

        </g>
    </symbol>
    <symbol id="pie-chart" viewBox="0 0 40 40">
        <g>
            <path
                d="M29.2104 23.8901C28.5742 25.3946 27.5792 26.7203 26.3123 27.7514C25.0454 28.7825 23.5452 29.4875 21.9428 29.8049C20.3405 30.1222 18.6848 30.0422 17.1205 29.5719C15.5563 29.1015 14.131 28.2551 12.9694 27.1067C11.8078 25.9583 10.9452 24.5428 10.457 22.984C9.96886 21.4252 9.86996 19.7706 10.169 18.1647C10.468 16.5589 11.1559 15.0507 12.1724 13.7721C13.189 12.4935 14.5033 11.4834 16.0004 10.8301"
                stroke="white" stroke-width="2" stroke-linecap="round" stroke-linejoin="round" />
            <path
                d="M30.0005 20C30.0005 18.6868 29.7418 17.3864 29.2393 16.1732C28.7367 14.9599 28.0001 13.8575 27.0716 12.9289C26.143 12.0003 25.0406 11.2638 23.8273 10.7612C22.6141 10.2587 21.3137 10 20.0005 10V20H30.0005Z"
                stroke="white" stroke-width="2" stroke-linecap="round" stroke-linejoin="round" />
        </g>
    </symbol>
    <symbol id="sloganSmall" viewBox="0 0 60 58">
        <g>
            <path
                d="M5.84248 44.8585C5.62219 44.5457 5.32508 44.2961 4.98026 44.134C4.64299 43.9748 4.27486 43.8932 3.90247 43.8949C3.49371 43.8918 3.08956 43.9822 2.72048 44.1594C2.36477 44.3364 2.04733 44.5826 1.7864 44.8838C1.52158 45.1871 1.31453 45.5371 1.17565 45.9162C1.03105 46.3092 0.956852 46.725 0.956505 47.1441C0.953488 47.5778 1.02771 48.0084 1.17565 48.4156C1.31306 48.7913 1.51899 49.1377 1.78281 49.437C2.04258 49.7271 2.35788 49.9612 2.70971 50.1253C3.09833 50.2973 3.51888 50.3837 3.94328 50.3787C4.36768 50.3737 4.78613 50.2774 5.17066 50.0963C5.55519 49.9105 5.8939 49.6408 6.16223 49.3066L6.84842 49.8898C6.52516 50.3389 6.09192 50.6959 5.59099 50.9258C5.06407 51.1512 4.49636 51.2635 3.92403 51.2554C3.3926 51.2588 2.86596 51.1541 2.3756 50.9475C1.90445 50.7489 1.47779 50.4567 1.12103 50.0883C0.764272 49.7199 0.484718 49.2828 0.299047 48.8031C-0.0996822 47.7536 -0.0996822 46.5926 0.299047 45.5431C0.478648 45.0599 0.753263 44.6183 1.1064 44.2448C1.45954 43.8713 1.88393 43.5737 2.35405 43.3697C2.85346 43.1545 3.39169 43.0459 3.93479 43.0509C4.4522 43.0509 4.9651 43.148 5.4473 43.3371C5.93095 43.5295 6.35244 43.8529 6.66521 44.2717L5.84248 44.8585Z"
                fill="white" />
            <path
                d="M12.5177 51.2407C11.9629 51.246 11.4124 51.1414 10.8975 50.9328C10.4203 50.736 9.98672 50.4454 9.62208 50.0779C9.2573 49.7078 8.97123 49.2666 8.78139 48.7812C8.38569 47.7311 8.38569 46.5712 8.78139 45.5211C8.97123 45.0357 9.2573 44.5944 9.62208 44.2243C9.98672 43.8568 10.4203 43.5662 10.8975 43.3695C11.9372 42.9608 13.0911 42.9608 14.1308 43.3695C14.6091 43.5662 15.0438 43.8568 15.4098 44.2243C15.7747 44.5937 16.0597 45.0352 16.2469 45.5211C16.6473 46.5703 16.6473 47.732 16.2469 48.7812C16.0597 49.2671 15.7747 49.7086 15.4098 50.0779C15.0438 50.4454 14.6091 50.736 14.1308 50.9328C13.6183 51.1408 13.0702 51.2454 12.5177 51.2407ZM12.5177 50.3822C12.9305 50.3886 13.34 50.3078 13.72 50.145C14.0999 49.9821 14.4418 49.7409 14.7236 49.4368C14.9961 49.1379 15.2084 48.7885 15.3487 48.4081C15.654 47.5909 15.654 46.6897 15.3487 45.8725C15.2084 45.492 14.9961 45.1426 14.7236 44.8437C14.4511 44.5497 14.1224 44.3144 13.7572 44.1519C13.3657 43.9846 12.9448 43.8984 12.5195 43.8984C12.0943 43.8984 11.6734 43.9846 11.2819 44.1519C10.9162 44.3135 10.5873 44.5489 10.3155 44.8437C10.0432 45.1434 9.82982 45.4925 9.68674 45.8725C9.38633 46.6905 9.38633 47.59 9.68674 48.4081C9.82982 48.788 10.0432 49.1371 10.3155 49.4368C10.5873 49.7316 10.9162 49.9671 11.2819 50.1287C11.6703 50.3051 12.0918 50.3953 12.5177 50.3931V50.3822Z"
                fill="white" />
            <path
                d="M18.8479 43.2539H20.2095L22.8285 49.3575H22.8501L25.4907 43.2539H26.8236V51.0418H25.9218V44.5217H25.9002L23.1303 51.0418H22.5735L19.8035 44.5217H19.782V51.0418H18.8659L18.8479 43.2539Z"
                fill="white" />
            <path
                d="M29.561 43.2534H31.8531C32.1947 43.2526 32.5355 43.2878 32.8699 43.3585C33.1778 43.4219 33.4706 43.5449 33.7321 43.7207C33.9836 43.8864 34.1899 44.1131 34.332 44.38C34.4919 44.6944 34.5698 45.0447 34.5584 45.3978C34.5712 45.7656 34.4882 46.1303 34.3177 46.4555C34.1671 46.7221 33.9552 46.9482 33.6998 47.1148C33.4474 47.276 33.1689 47.3912 32.877 47.4553C32.5975 47.5184 32.312 47.5512 32.0256 47.5531H30.4772V51.0522H29.561V43.2534ZM30.4772 46.6874H32.0292C32.4255 46.7056 32.8171 46.5951 33.1465 46.3722C33.2819 46.2493 33.3902 46.099 33.4643 45.9311C33.5384 45.7633 33.5767 45.5816 33.5767 45.3978C33.5767 45.2141 33.5384 45.0324 33.4643 44.8645C33.3902 44.6967 33.2819 44.5464 33.1465 44.4234C32.8159 44.2035 32.4249 44.0944 32.0292 44.1119H30.4807L30.4772 46.6874Z"
                fill="white" />
            <path
                d="M38.5499 43.2539H39.4122L42.6958 51.0418H41.618L40.8349 49.1293H36.98L36.1824 51.0418H35.1477L38.5499 43.2539ZM38.9631 44.442H38.9415L37.3392 48.2708H40.4936L38.9631 44.442Z"
                fill="white" />
            <path
                d="M44.5388 43.2539H45.6812L50.1541 49.7233H50.1756V43.2539H51.0917V51.0418H49.9385L45.4621 44.5724H45.4405V51.0418H44.5244L44.5388 43.2539Z"
                fill="white" />
            <path
                d="M55.6688 47.6876L52.7947 43.2539H53.9443L56.0999 46.7748L58.3381 43.2539H59.4411L56.5669 47.6876V51.0418H55.6688V47.6876Z"
                fill="white" />
            <path
                d="M18.8693 54.8123C18.7895 54.7012 18.6849 54.6106 18.5639 54.5479C18.4264 54.4762 18.2731 54.4413 18.1184 54.4464C18.026 54.4472 17.9342 54.4606 17.8454 54.4863C17.7547 54.513 17.6695 54.5559 17.5939 54.6131C17.518 54.6714 17.4556 54.7455 17.4107 54.8304C17.3617 54.9241 17.337 55.0288 17.3388 55.1347C17.3358 55.2357 17.3593 55.3356 17.4071 55.4245C17.4519 55.5011 17.5118 55.5677 17.5831 55.6201C17.6609 55.6754 17.7454 55.7204 17.8346 55.7541L18.1292 55.8555C18.2585 55.899 18.3843 55.9425 18.5136 55.9932C18.6425 56.0363 18.7638 56.0998 18.8729 56.1815C18.9777 56.2603 19.0636 56.3618 19.1244 56.4785C19.1943 56.6187 19.2277 56.7745 19.2213 56.9313C19.2265 57.0958 19.1906 57.2589 19.1172 57.4058C19.0527 57.5345 18.9607 57.6471 18.8477 57.7355C18.7337 57.8228 18.6046 57.8879 18.4669 57.9275C18.3215 57.9734 18.1702 57.9978 18.0178 57.9999C17.9069 57.9998 17.7962 57.9889 17.6873 57.9673C17.5798 57.945 17.475 57.911 17.3747 57.8659C17.275 57.8205 17.1809 57.7634 17.0945 57.6956C17.0119 57.6232 16.9361 57.5432 16.8682 57.4566L17.1879 57.2175C17.2721 57.3523 17.3865 57.4652 17.522 57.5471C17.6732 57.6366 17.8462 57.6818 18.0214 57.6775C18.1176 57.677 18.2132 57.6623 18.3052 57.6341C18.3994 57.6072 18.4874 57.5616 18.5639 57.5C18.6431 57.4403 18.7081 57.3636 18.7543 57.2755C18.8038 57.1785 18.8296 57.0711 18.8296 56.9621C18.8296 56.8531 18.8038 56.7457 18.7543 56.6488C18.7062 56.5628 18.6384 56.4895 18.5567 56.4351C18.4694 56.3744 18.3738 56.3268 18.2729 56.2938C18.1687 56.254 18.0573 56.2177 17.9388 56.1779C17.8166 56.1417 17.6966 56.0982 17.5795 56.0475C17.4645 56.0028 17.3577 55.9391 17.2634 55.8591C17.1701 55.7805 17.0942 55.683 17.0406 55.573C16.9796 55.4417 16.95 55.2977 16.9544 55.1528C16.9499 54.9938 16.9871 54.8363 17.0622 54.6964C17.1282 54.5707 17.2215 54.4617 17.3352 54.3776C17.4497 54.2958 17.5773 54.2345 17.7124 54.1965C17.8448 54.1598 17.9812 54.1403 18.1184 54.1386C18.3366 54.1335 18.553 54.1794 18.7507 54.2726C18.9055 54.3427 19.0411 54.4496 19.1459 54.5841L18.8693 54.8123Z"
                fill="white" />
            <path d="M21.4057 57.5655H23.105V57.8952H21.0356V54.2222H21.3949L21.4057 57.5655Z" fill="white" />
            <path
                d="M28.1349 56.0582C28.1386 56.3236 28.0898 56.5872 27.9912 56.8334C27.9022 57.0622 27.7663 57.2696 27.5924 57.4419C27.4203 57.614 27.2165 57.7505 26.9925 57.844C26.5078 58.0372 25.9683 58.0372 25.4836 57.844C25.2596 57.7505 25.0557 57.614 24.8836 57.4419C24.7097 57.2696 24.5739 57.0622 24.4848 56.8334C24.2883 56.3368 24.2883 55.7832 24.4848 55.2866C24.575 55.0573 24.7107 54.849 24.8836 54.6745C25.0557 54.5024 25.2596 54.3658 25.4836 54.2724C25.9683 54.0791 26.5078 54.0791 26.9925 54.2724C27.2165 54.3658 27.4203 54.5024 27.5924 54.6745C27.7653 54.849 27.901 55.0573 27.9912 55.2866C28.0894 55.5317 28.1382 55.7939 28.1349 56.0582ZM27.7469 56.0582C27.7474 55.8496 27.7122 55.6425 27.6427 55.446C27.5763 55.2582 27.4752 55.0849 27.3446 54.9353C27.2118 54.7826 27.0491 54.6592 26.8667 54.573C26.6691 54.4837 26.4545 54.4392 26.238 54.4426C26.0203 54.4392 25.8045 54.4837 25.6057 54.573C25.4243 54.6591 25.2628 54.7825 25.1315 54.9353C25.0027 55.0912 24.9051 55.2708 24.8441 55.4641C24.7052 55.8602 24.7052 56.2924 24.8441 56.6885C24.9096 56.8755 25.0109 57.0478 25.1423 57.1956C25.2735 57.3484 25.4351 57.4717 25.6165 57.5578C25.8161 57.6442 26.0315 57.6874 26.2488 57.6846C26.4649 57.6874 26.6791 57.6443 26.8775 57.5578C27.0599 57.4716 27.2226 57.3483 27.3553 57.1956C27.4866 57.0478 27.5879 56.8755 27.6535 56.6885C27.7209 56.4867 27.7526 56.2746 27.7469 56.0618V56.0582Z"
                fill="white" />
            <path
                d="M32.7012 54.8847C32.5742 54.7492 32.4198 54.643 32.2485 54.5731C32.057 54.4947 31.8516 54.4565 31.6449 54.4608C31.4284 54.4574 31.2138 54.502 31.0162 54.5913C30.8344 54.6783 30.6718 54.8015 30.5384 54.9535C30.4052 55.1025 30.3016 55.2759 30.233 55.4642C30.0893 55.8595 30.0893 56.2933 30.233 56.6886C30.2971 56.8772 30.3991 57.0505 30.5326 57.1976C30.6661 57.3447 30.8283 57.4624 31.009 57.5434C31.2074 57.6299 31.4217 57.6731 31.6377 57.6702C31.8289 57.6721 32.0195 57.6502 32.2054 57.605C32.3519 57.5694 32.4924 57.512 32.6221 57.4348V56.3155H31.7743V55.9858H32.9922V57.6376C32.7915 57.7582 32.575 57.8496 32.3491 57.9093C32.1141 57.9681 31.8727 57.9973 31.6306 57.9962C31.3697 57.9993 31.1108 57.95 30.8689 57.8513C30.6431 57.7609 30.4381 57.6245 30.2669 57.4506C30.0956 57.2767 29.9618 57.0691 29.8738 56.8407C29.7769 56.594 29.7281 56.3308 29.73 56.0655C29.7279 55.801 29.7779 55.5388 29.8774 55.294C29.9676 55.0647 30.1032 54.8564 30.2761 54.6818C30.4483 54.5098 30.6521 54.3732 30.8761 54.2797C31.116 54.1831 31.3722 54.134 31.6306 54.1349C31.8907 54.1285 32.1496 54.1741 32.3922 54.2689C32.6003 54.3502 32.7898 54.4735 32.9491 54.6311L32.7012 54.8847Z"
                fill="white" />
            <path
                d="M34.9499 57.8952H34.5439L36.1175 54.2222H36.4768L38.0432 57.8952H37.63L37.2312 56.9316H35.3451L34.9499 57.8952ZM35.4852 56.5875H37.0911L36.2864 54.6387L35.4852 56.5875Z"
                fill="white" />
            <path
                d="M42.1893 57.3518V54.2222H42.5486V57.8952H42.0851L39.9655 54.7365V57.8952H39.6062V54.2222H40.0696L42.1893 57.3518Z"
                fill="white" />
            <path
                d="M37.8133 18.5641C38.4543 18.3666 39.1419 18.3856 39.7712 18.6184C40.0084 18.7162 40.2419 18.8285 40.4898 18.9517C40.7377 19.0748 40.9389 19.2125 41.1616 19.361C41.6105 19.6673 42.0259 20.0206 42.4011 20.4151C43.2081 21.2848 43.8142 22.3239 44.1758 23.4578C44.5874 24.7574 44.7209 26.1303 44.5674 27.4858C44.3893 29.0152 43.9092 30.4932 43.1555 31.8325C42.6837 32.6565 41.9567 33.3017 41.0862 33.669C40.8856 33.7495 40.6789 33.8137 40.4682 33.861C40.27 33.9051 40.0677 33.9282 39.8647 33.9298C39.4913 33.9416 39.1209 33.8595 38.7869 33.6908C38.5079 33.5417 38.2738 33.3199 38.1088 33.0484C37.9439 32.777 37.8542 32.4659 37.8492 32.1477C37.8297 31.4518 38.0366 30.7686 38.4384 30.2025C38.9407 29.4375 39.2977 28.5851 39.491 27.6886C39.671 26.8549 39.6905 25.9941 39.5485 25.153C39.5162 24.9538 39.4659 24.7509 39.4156 24.559C39.3904 24.4648 39.3617 24.3706 39.333 24.2764C39.3042 24.1823 39.2647 24.0844 39.2288 23.9939C39.1617 23.8112 39.085 23.6322 38.9988 23.4578C38.909 23.2839 38.8156 23.1173 38.7186 22.9543C38.3224 22.3203 37.8204 21.7603 37.2348 21.2989C36.8354 21.0124 36.5241 20.6182 36.3367 20.1615C36.2743 19.9906 36.2668 19.8042 36.3152 19.6287C36.3635 19.4532 36.4653 19.2975 36.6061 19.1835C36.7609 19.0356 36.9379 18.9133 37.1307 18.8213C37.3486 18.7116 37.5774 18.6254 37.8133 18.5641Z"
                fill="#F1F1F1" />
            <path
                d="M33.6493 25.566C34.1411 26.0254 34.4694 26.6351 34.5834 27.3011C34.6194 27.5593 34.641 27.8193 34.6481 28.0799C34.6624 28.3441 34.6624 28.609 34.6481 28.8732C34.6265 29.1376 34.5942 29.4057 34.5475 29.6737C34.4994 29.9452 34.4358 30.2137 34.3571 30.4779C34.0166 31.6186 33.4274 32.6681 32.6326 33.5496C31.7216 34.5545 30.6115 35.3554 29.3741 35.9004C27.9703 36.5213 26.4556 36.8467 24.9228 36.8567C23.974 36.8591 23.0509 36.5459 22.2966 35.9656C21.9736 35.7361 21.7029 35.4396 21.5028 35.096C21.3027 34.7524 21.1777 34.3696 21.1362 33.9734C21.126 33.6553 21.2006 33.3403 21.3523 33.0613C21.5039 32.7822 21.7271 32.5493 21.9984 32.3868C22.2756 32.2136 22.5808 32.091 22.9002 32.0246C23.2536 31.9447 23.6168 31.9178 23.978 31.9449C24.8866 32.0065 25.7985 31.8934 26.6652 31.6116C27.074 31.4785 27.4697 31.3075 27.8472 31.1009C28.034 30.9922 28.2065 30.8799 28.3825 30.764C28.5519 30.6525 28.715 30.5315 28.8711 30.4018C29.1767 30.1445 29.457 29.8582 29.7082 29.5469C29.8303 29.3948 29.9453 29.2318 30.0675 29.0724C30.1896 28.913 30.2722 28.7537 30.3621 28.5798C30.7089 27.917 30.9398 27.199 31.0447 26.4571C31.0808 26.1826 31.1508 25.9137 31.2531 25.6566C31.2961 25.5482 31.3466 25.4429 31.4039 25.3415C31.4291 25.298 31.4578 25.2545 31.4866 25.2147L31.5764 25.0988C31.6938 24.9617 31.8503 24.8645 32.0246 24.8204C32.1988 24.7763 32.3823 24.7875 32.55 24.8524C32.6478 24.881 32.7428 24.9186 32.8338 24.9647C32.9333 25.0121 33.0294 25.0666 33.1212 25.1277C33.311 25.2561 33.4879 25.4029 33.6493 25.566Z"
                fill="white" />
            <path
                d="M25.5624 25.4319C25.4102 26.0899 25.0495 26.6799 24.5349 27.1126C23.6922 27.769 22.7213 28.2382 21.686 28.4891C20.5359 28.7585 19.341 28.7684 18.1867 28.5181C16.8656 28.2276 15.6204 27.6586 14.533 26.8482C13.2987 25.9288 12.2633 24.7653 11.4901 23.4288C11.0118 22.6024 10.8209 21.6386 10.9476 20.6903C10.9476 20.5817 10.9799 20.473 11.0014 20.368C11.023 20.2629 11.0589 20.1579 11.0913 20.0564C11.1555 19.8639 11.2361 19.6773 11.332 19.4986C11.5116 19.1728 11.7668 18.8957 12.0757 18.6908C12.344 18.5227 12.6521 18.43 12.9679 18.4224C13.2838 18.4147 13.5959 18.4924 13.872 18.6474C14.1621 18.7963 14.4227 18.9977 14.6408 19.2414C14.7623 19.3681 14.8729 19.5051 14.9713 19.6507C15.071 19.8049 15.1621 19.9646 15.2444 20.1289C15.6441 20.9506 16.1952 21.6881 16.8682 22.3023C17.4975 22.8753 18.229 23.3228 19.0238 23.6208C19.396 23.7664 19.7809 23.8767 20.1735 23.9504C20.5534 24.0123 20.9385 24.0365 21.3231 24.0228C21.6966 24.0091 22.0681 23.9618 22.4332 23.8816C22.7924 23.8008 23.1445 23.6905 23.4859 23.552C23.7406 23.4468 24.0073 23.3738 24.2798 23.3346C24.3988 23.318 24.519 23.3107 24.6391 23.3129C24.7381 23.314 24.8368 23.3249 24.9337 23.3455C25.1128 23.377 25.278 23.4635 25.4065 23.5932C25.5351 23.7228 25.6209 23.8893 25.6522 24.0699C25.7303 24.5247 25.6995 24.9916 25.5624 25.4319Z"
                fill="#F1F1F1" />
            <path
                d="M21.6357 18.2926C20.9951 18.4936 20.3064 18.4745 19.6777 18.2382C19.4406 18.1404 19.2071 18.0282 18.9592 17.905C18.7284 17.7803 18.5042 17.6437 18.2874 17.4957C17.8385 17.1894 17.423 16.8361 17.0479 16.4416C16.2416 15.5727 15.6356 14.5349 15.2732 13.4025C14.8623 12.1015 14.7277 10.7278 14.878 9.37089C15.0567 7.84162 15.5368 6.36377 16.2899 5.02415C16.7633 4.1992 17.4913 3.55297 18.3628 3.18402C18.5629 3.1031 18.7697 3.04008 18.9808 2.99568C19.1774 2.94862 19.3787 2.92431 19.5807 2.92322C19.9544 2.91285 20.3247 2.99624 20.6585 3.16591C20.9382 3.31407 21.173 3.53568 21.3381 3.80731C21.5031 4.07893 21.5923 4.39048 21.5962 4.70901C21.6134 5.40455 21.4067 6.08699 21.007 6.65417C20.5012 7.41595 20.144 8.26787 19.9544 9.16442C19.7751 9.99811 19.7543 10.8585 19.8933 11.7C19.9292 11.9029 19.9795 12.1021 20.0298 12.2941C20.055 12.3919 20.0837 12.486 20.1125 12.5802C20.1412 12.6744 20.1771 12.7686 20.213 12.8592C20.2849 13.0439 20.3603 13.2214 20.4466 13.3952C20.5328 13.5691 20.6298 13.7394 20.7268 13.8987C21.1218 14.5336 21.624 15.0938 22.2105 15.5541C22.6104 15.8418 22.9217 16.2372 23.1087 16.6951C23.1707 16.8664 23.1776 17.053 23.1286 17.2286C23.0796 17.4041 22.9771 17.5596 22.8357 17.6732C22.6806 17.8191 22.5051 17.9411 22.3147 18.0354C22.0981 18.1452 21.8705 18.2314 21.6357 18.2926Z"
                fill="white" />
            <path
                d="M25.7958 11.2943C25.3061 10.8333 24.9782 10.2244 24.8617 9.55922C24.8258 9.29841 24.8078 9.04484 24.797 8.78042C24.7862 8.51599 24.797 8.24794 24.797 7.98351C24.797 7.71908 24.8509 7.45467 24.8976 7.183C24.9454 6.9126 25.0089 6.64528 25.088 6.38247C25.4292 5.24096 26.0183 4.19042 26.8125 3.30715C27.7214 2.30149 28.8306 1.50043 30.0674 0.956289C31.4724 0.335446 32.9883 0.010048 34.5223 0C35.4694 0.00129377 36.3902 0.314165 37.1449 0.89109C37.4684 1.12013 37.7395 1.41649 37.9396 1.76018C38.1398 2.10388 38.2645 2.4869 38.3053 2.88335C38.3165 3.20164 38.2428 3.51711 38.0917 3.79683C37.9407 4.07656 37.7179 4.31025 37.4467 4.47351C37.1675 4.64247 36.8629 4.76479 36.545 4.83574C36.1913 4.91402 35.8282 4.93966 35.4672 4.91182C34.5598 4.8518 33.6493 4.96485 32.7835 5.24506C32.3731 5.37854 31.9762 5.55078 31.5979 5.75944C31.4147 5.86449 31.2386 5.97677 31.0662 6.09269C30.8968 6.20425 30.7337 6.32518 30.5776 6.45492C30.2712 6.71123 29.9908 6.99758 29.7405 7.30977C29.6183 7.46191 29.5034 7.62491 29.3812 7.78429C29.2741 7.94416 29.1758 8.10982 29.0866 8.28054C28.7375 8.94231 28.5065 9.66078 28.404 10.4032C28.3669 10.6776 28.297 10.9464 28.1957 11.2037C28.1533 11.3113 28.1029 11.4154 28.0448 11.5152C28.019 11.5595 27.9901 11.6018 27.9585 11.642C27.9306 11.6822 27.9006 11.7209 27.8687 11.7579C27.7523 11.8953 27.5966 11.9931 27.423 12.0378C27.2493 12.0826 27.0662 12.0721 26.8987 12.0079C26.8008 11.978 26.7058 11.9392 26.6149 11.892C26.5161 11.8445 26.4202 11.7912 26.3275 11.7326C26.138 11.6023 25.9601 11.4557 25.7958 11.2943Z"
                fill="#F1F1F1" />
            <path
                d="M33.883 11.4282C34.0342 10.7698 34.3951 10.1795 34.9105 9.74744C35.758 9.0888 36.7356 8.62071 37.7774 8.37461C38.927 8.10209 40.1223 8.09095 41.2766 8.342C42.5984 8.62978 43.8449 9.19642 44.9339 10.0046C46.1675 10.9264 47.2027 12.0909 47.9769 13.4277C48.4551 14.2528 48.6461 15.2154 48.5194 16.1625C48.5061 16.2722 48.4869 16.381 48.4619 16.4885C48.4368 16.5936 48.408 16.6986 48.3757 16.7964C48.3111 16.9906 48.2293 17.1785 48.1314 17.3579C47.9531 17.6825 47.6991 17.9585 47.3913 18.162C47.1233 18.3307 46.8154 18.424 46.4995 18.4323C46.1837 18.4406 45.8714 18.3635 45.595 18.2091C45.3055 18.0576 45.0451 17.8552 44.8262 17.6114C44.7054 17.4827 44.5949 17.3446 44.4956 17.1985C44.3948 17.0444 44.3024 16.8847 44.219 16.7203C43.8208 15.8986 43.2709 15.161 42.5987 14.547C41.9702 13.9737 41.2385 13.5273 40.4431 13.2321C39.7047 12.9625 38.9215 12.8395 38.1367 12.8699C37.7632 12.8836 37.3917 12.9309 37.0265 13.0111C36.6674 13.0907 36.3154 13.1998 35.9739 13.3371C35.7179 13.4423 35.45 13.5153 35.1763 13.5545C35.0572 13.5706 34.9372 13.5791 34.8171 13.5798C34.717 13.5767 34.6173 13.5658 34.5189 13.5472C34.3393 13.5167 34.1737 13.4305 34.0449 13.3007C33.9161 13.1709 33.8307 13.0038 33.8004 12.8228C33.7147 12.3581 33.743 11.8793 33.883 11.4282Z"
                fill="white" />

        </g>
    </symbol>
    <symbol id="sortup" viewBox="0 0 7 4">
        <g>
            <path d="M0 3.75L3.5 0L7 3.75H0Z" />
        </g>
    </symbol>
    <symbol id="sortdown" viewBox="0 0 7 4">
        <g>
            <path d="M0 0.25L3.5 4L7 0.25H0Z" />
        </g>
    </symbol>
    <symbol id="archive" viewBox="0 0 40 40">
        <g>
            <path d="M29 16V29H11V16" stroke="white" stroke-width="2" stroke-linecap="round" stroke-linejoin="round" />
            <path d="M31 11H9V16H31V11Z" stroke="white" stroke-width="2" stroke-linecap="round"
                stroke-linejoin="round" />
            <path d="M18 20H22" stroke="white" stroke-width="2" stroke-linecap="round" stroke-linejoin="round" />
        </g>
    </symbol>
    <symbol id="bell" viewBox="0 0 40 40">
        <g>
            <path
                d="M21.73 29C21.5542 29.3031 21.3018 29.5547 20.9982 29.7295C20.6946 29.9044 20.3504 29.9965 20 29.9965C19.6496 29.9965 19.3054 29.9044 19.0018 29.7295C18.6982 29.5547 18.4458 29.3031 18.27 29M30 25H10C10.7956 25 11.5587 24.6839 12.1213 24.1213C12.6839 23.5587 13 22.7956 13 22V17C13 15.1435 13.7375 13.363 15.0503 12.0503C16.363 10.7375 18.1435 10 20 10C21.8565 10 23.637 10.7375 24.9497 12.0503C26.2625 13.363 27 15.1435 27 17V22C27 22.7956 27.3161 23.5587 27.8787 24.1213C28.4413 24.6839 29.2044 25 30 25V25Z"
                stroke="white" stroke-width="2" stroke-linecap="round" stroke-linejoin="round" />
        </g>
    </symbol>
    <symbol id="home" viewBox="0 0 40 40">
        <g>
            <path
                d="M11 17L20 10L29 17V28C29 28.5304 28.7893 29.0391 28.4142 29.4142C28.0391 29.7893 27.5304 30 27 30H13C12.4696 30 11.9609 29.7893 11.5858 29.4142C11.2107 29.0391 11 28.5304 11 28V17Z"
                stroke="white" stroke-width="2" stroke-linecap="round" stroke-linejoin="round" />
            <path d="M17 30V20H23V30" stroke="white" stroke-width="2" stroke-linecap="round" stroke-linejoin="round" />
        </g>
    </symbol>
    <symbol id="lock" viewBox="0 0 40 40">
        <g>
            <path
                d="M27 19H13C11.8954 19 11 19.8954 11 21V28C11 29.1046 11.8954 30 13 30H27C28.1046 30 29 29.1046 29 28V21C29 19.8954 28.1046 19 27 19Z"
                stroke="#ADADAD" stroke-width="2" stroke-linecap="round" stroke-linejoin="round" />
            <path
                d="M15 19V15C15 13.6739 15.5268 12.4021 16.4645 11.4645C17.4021 10.5268 18.6739 10 20 10C21.3261 10 22.5979 10.5268 23.5355 11.4645C24.4732 12.4021 25 13.6739 25 15V19"
                stroke="#ADADAD" stroke-width="2" stroke-linecap="round" stroke-linejoin="round" />

        </g>
    </symbol>
    <symbol id="mail" viewBox="0 0 40 40">
        <g>
            <path
                d="M12 12H28C29.1 12 30 12.9 30 14V26C30 27.1 29.1 28 28 28H12C10.9 28 10 27.1 10 26V14C10 12.9 10.9 12 12 12Z"
                stroke="#ADADAD" stroke-width="2" stroke-linecap="round" stroke-linejoin="round" />
            <path d="M30 14L20 21L10 14" stroke="#ADADAD" stroke-width="2" stroke-linecap="round"
                stroke-linejoin="round" />
        </g>
    </symbol>
    <symbol id="plus" viewBox="0 0 40 40">
        <g>
            <path d="M20 13V27" stroke="white" stroke-width="2" stroke-linecap="round" stroke-linejoin="round" />
            <path d="M13 20H27" stroke="white" stroke-width="2" stroke-linecap="round" stroke-linejoin="round" />
        </g>
    </symbol>
    <symbol id="globe" viewBox="0 0 40 40">
        <g>
            <path
                d="M20 29C25.5228 29 30 24.5228 30 19C30 13.4772 25.5228 9 20 9C14.4772 9 10 13.4772 10 19C10 24.5228 14.4772 29 20 29Z"
                stroke="white" stroke-width="2" stroke-linecap="round" stroke-linejoin="round" />
            <path d="M10 19H30" stroke="white" stroke-width="2" stroke-linecap="round" stroke-linejoin="round" />
            <path
                d="M20 9C22.5013 11.7384 23.9228 15.292 24 19C23.9228 22.708 22.5013 26.2616 20 29C17.4987 26.2616 16.0772 22.708 16 19C16.0772 15.292 17.4987 11.7384 20 9V9Z"
                stroke="white" stroke-width="2" stroke-linecap="round" stroke-linejoin="round" />
        </g>
    </symbol>
    <symbol id="burger" viewBox="0 0 24 24">
        <g>
            <rect y="22" width="24" height="2" fill="white" />
            <rect y="11" width="24" height="2" fill="white" />
            <rect width="24" height="2" fill="white" />
        </g>
    </symbol>
    <symbol id="search" viewBox="0 0 40 40">
        <g>
            <path
                d="M18 27C22.4183 27 26 23.4183 26 19C26 14.5817 22.4183 11 18 11C13.5817 11 10 14.5817 10 19C10 23.4183 13.5817 27 18 27Z"
                stroke="#5C5C5C" stroke-width="2" stroke-linecap="round" stroke-linejoin="round" />
            <path d="M27.9999 28.9999L23.6499 24.6499" stroke="#5C5C5C" stroke-width="2" stroke-linecap="round"
                stroke-linejoin="round" />
        </g>
    </symbol>
    <symbol id="archive" viewBox="0 0 40 40">
        <g>
            <path d="M29 16V29H11V16" stroke="white" stroke-width="2" stroke-linecap="round" stroke-linejoin="round" />
            <path d="M31 11H9V16H31V11Z" stroke="white" stroke-width="2" stroke-linecap="round"
                stroke-linejoin="round" />
            <path d="M18 20H22" stroke="white" stroke-width="2" stroke-linecap="round" stroke-linejoin="round" />
        </g>
    </symbol>
    <symbol id="log-out" viewBox="0 0 40 40">
        <g>
            <path
                d="M17 29H13C12.4696 29 11.9609 28.7893 11.5858 28.4142C11.2107 28.0391 11 27.5304 11 27V13C11 12.4696 11.2107 11.9609 11.5858 11.5858C11.9609 11.2107 12.4696 11 13 11H17"
                stroke="#5C5C5C" stroke-width="2" stroke-linecap="round" stroke-linejoin="round" />
            <path d="M24 25L29 20L24 15" stroke="#5C5C5C" stroke-width="2" stroke-linecap="round"
                stroke-linejoin="round" />
            <path d="M29 20H17" stroke="#5C5C5C" stroke-width="2" stroke-linecap="round" stroke-linejoin="round" />
        </g>
    </symbol>
    <symbol id="database" viewBox="0 0 40 40">
        <g>
            <path
                d="M20 16C24.9706 16 29 14.6569 29 13C29 11.3431 24.9706 10 20 10C15.0294 10 11 11.3431 11 13C11 14.6569 15.0294 16 20 16Z"
                stroke="white" stroke-width="2" stroke-linecap="round" stroke-linejoin="round" />
            <path d="M29 20C29 21.66 25 23 20 23C15 23 11 21.66 11 20" stroke="white" stroke-width="2"
                stroke-linecap="round" stroke-linejoin="round" />
            <path d="M11 13V27C11 28.66 15 30 20 30C25 30 29 28.66 29 27V13" stroke="white" stroke-width="2"
                stroke-linecap="round" stroke-linejoin="round" />
        </g>
    </symbol>
    <symbol id="slogan" viewBox="0 0 165 161">
        <g>
            <path
                d="M16.2179 124.52C15.6064 123.652 14.7817 122.959 13.8245 122.509C12.8883 122.068 11.8664 121.841 10.8327 121.846C9.69806 121.837 8.57618 122.088 7.55167 122.58C6.56428 123.071 5.68309 123.755 4.95881 124.591C4.22371 125.433 3.64896 126.404 3.26344 127.456C2.86205 128.547 2.65609 129.701 2.65512 130.865C2.64675 132.069 2.85278 133.264 3.26344 134.394C3.64487 135.437 4.2165 136.399 4.94882 137.23C5.66992 138.035 6.54514 138.685 7.52179 139.14C8.60054 139.618 9.76793 139.858 10.946 139.844C12.1241 139.83 13.2856 139.563 14.353 139.06C15.4204 138.544 16.3606 137.795 17.1055 136.868L19.0102 138.487C18.1129 139.733 16.9103 140.724 15.5198 141.362C14.0571 141.988 12.4813 142.3 10.8925 142.277C9.41739 142.287 7.9555 141.996 6.59434 141.423C5.28649 140.871 4.10213 140.06 3.11182 139.038C2.12151 138.015 1.34551 136.802 0.830111 135.47C-0.276704 132.557 -0.276704 129.334 0.830111 126.421C1.32866 125.079 2.09095 123.854 3.07122 122.817C4.05149 121.78 5.22953 120.954 6.5345 120.388C7.92081 119.79 9.41485 119.489 10.9224 119.503C12.3587 119.503 13.7824 119.772 15.1209 120.297C16.4635 120.831 17.6335 121.729 18.5017 122.891L16.2179 124.52Z"
                fill="#3E9757" />
            <path
                d="M34.7474 142.237C33.2071 142.252 31.679 141.962 30.2497 141.383C28.9251 140.836 27.7216 140.03 26.7094 139.01C25.6968 137.982 24.9028 136.757 24.3758 135.41C23.2774 132.495 23.2774 129.275 24.3758 126.36C24.9028 125.013 25.6968 123.788 26.7094 122.761C27.7216 121.741 28.9251 120.934 30.2497 120.388C33.1357 119.254 36.3391 119.254 39.2251 120.388C40.5527 120.934 41.7594 121.741 42.7754 122.761C43.7881 123.786 44.5793 125.012 45.099 126.36C46.2106 129.273 46.2106 132.498 45.099 135.41C44.5793 136.759 43.7881 137.984 42.7754 139.01C41.7594 140.03 40.5527 140.836 39.2251 141.383C37.8023 141.96 36.281 142.25 34.7474 142.237ZM34.7474 139.854C35.8932 139.872 37.03 139.648 38.0846 139.196C39.1392 138.744 40.0882 138.074 40.8706 137.23C41.6268 136.4 42.2161 135.43 42.6059 134.374C43.4532 132.106 43.4532 129.604 42.6059 127.336C42.2161 126.28 41.6268 125.31 40.8706 124.48C40.1141 123.664 39.2016 123.011 38.188 122.56C37.1011 122.095 35.9328 121.856 34.7524 121.856C33.572 121.856 32.4036 122.095 31.3168 122.56C30.3018 123.008 29.3888 123.662 28.6341 124.48C27.8783 125.312 27.2861 126.281 26.8889 127.336C26.055 129.607 26.055 132.103 26.8889 134.374C27.2861 135.429 27.8783 136.398 28.6341 137.23C29.3888 138.048 30.3018 138.702 31.3168 139.15C32.3949 139.64 33.5649 139.891 34.7474 139.884V139.854Z"
                fill="#3E9757" />
            <path
                d="M52.3188 120.066H56.0985L63.3686 137.009H63.4284L70.7583 120.066H74.4582V141.685H71.955V123.586H71.8952L64.2062 141.685H62.6605L54.9715 123.586H54.9117V141.685H52.3687L52.3188 120.066Z"
                fill="#3E9757" />
            <path
                d="M82.0574 120.066H88.4199C89.3682 120.064 90.3141 120.161 91.2422 120.358C92.097 120.534 92.9097 120.875 93.6356 121.363C94.3338 121.823 94.9064 122.452 95.301 123.193C95.7448 124.066 95.961 125.038 95.9293 126.019C95.965 127.039 95.7346 128.052 95.2612 128.955C94.8432 129.694 94.2549 130.322 93.5459 130.785C92.8454 131.232 92.0724 131.552 91.2621 131.73C90.4861 131.905 89.6938 131.996 88.8986 132.001H84.6004V141.714H82.0574V120.066ZM84.6004 129.598H88.9086C90.0086 129.649 91.0957 129.342 92.0101 128.723C92.386 128.382 92.6866 127.965 92.8923 127.499C93.098 127.033 93.2044 126.529 93.2044 126.019C93.2044 125.508 93.098 125.004 92.8923 124.538C92.6866 124.072 92.386 123.655 92.0101 123.314C91.0925 122.703 90.007 122.4 88.9086 122.449H84.6104L84.6004 129.598Z"
                fill="#3E9757" />
            <path
                d="M107.009 120.066H109.402L118.517 141.685H115.525L113.351 136.376H102.651L100.437 141.685H97.5647L107.009 120.066ZM108.156 123.364H108.096L103.648 133.993H112.404L108.156 123.364Z"
                fill="#3E9757" />
            <path
                d="M123.633 120.066H126.805L139.221 138.025H139.28V120.066H141.823V141.685H138.622L126.196 123.726H126.137V141.685H123.594L123.633 120.066Z"
                fill="#3E9757" />
            <path
                d="M154.529 132.374L146.551 120.066H149.742L155.725 129.84L161.938 120.066H165L157.022 132.374V141.685H154.529V132.374Z"
                fill="#3E9757" />
            <path
                d="M52.3788 152.152C52.1573 151.843 51.8669 151.592 51.5311 151.417C51.1495 151.219 50.7238 151.122 50.2945 151.136C50.0381 151.138 49.7831 151.175 49.5366 151.247C49.2848 151.321 49.0483 151.44 48.8385 151.599C48.628 151.76 48.4545 151.966 48.3299 152.202C48.194 152.462 48.1254 152.752 48.1304 153.046C48.122 153.327 48.1874 153.604 48.3199 153.851C48.4443 154.064 48.6106 154.248 48.8085 154.394C49.0245 154.547 49.2591 154.672 49.5066 154.766L50.3244 155.047C50.6834 155.168 51.0325 155.289 51.3915 155.429C51.7494 155.549 52.0861 155.726 52.3887 155.952C52.6797 156.171 52.9183 156.453 53.0868 156.777C53.281 157.166 53.3736 157.598 53.3561 158.034C53.3703 158.49 53.2708 158.943 53.0669 159.351C52.888 159.708 52.6325 160.021 52.3189 160.266C52.0025 160.508 51.644 160.689 51.2618 160.799C50.8581 160.926 50.4382 160.994 50.0152 161C49.7072 161 49.4 160.969 49.0978 160.909C48.7993 160.848 48.5084 160.753 48.2302 160.628C47.9532 160.502 47.6921 160.343 47.4523 160.155C47.2229 159.954 47.0126 159.732 46.824 159.492L47.7116 158.828C47.9452 159.202 48.2629 159.516 48.639 159.743C49.0586 159.991 49.5387 160.117 50.0252 160.105C50.2922 160.104 50.5576 160.063 50.813 159.984C51.0745 159.91 51.3187 159.783 51.5311 159.612C51.7509 159.446 51.9314 159.234 52.0596 158.989C52.197 158.72 52.2686 158.422 52.2686 158.119C52.2686 157.817 52.197 157.518 52.0596 157.249C51.926 157.011 51.738 156.807 51.5111 156.656C51.2687 156.488 51.0033 156.356 50.7233 156.264C50.4341 156.153 50.125 156.053 49.7959 155.942C49.4566 155.842 49.1235 155.721 48.7986 155.58C48.4794 155.456 48.1828 155.279 47.921 155.057C47.6621 154.839 47.4514 154.569 47.3027 154.263C47.1332 153.899 47.0512 153.499 47.0633 153.097C47.0509 152.655 47.1542 152.218 47.3625 151.83C47.5457 151.481 47.8048 151.178 48.1204 150.945C48.4381 150.718 48.7924 150.548 49.1676 150.442C49.5349 150.34 49.9136 150.286 50.2945 150.281C50.9002 150.267 51.5008 150.395 52.0496 150.653C52.4793 150.848 52.8557 151.145 53.1467 151.518L52.3788 152.152Z"
                fill="#92E3A9" />
            <path d="M59.4195 159.793H64.1365V160.708H58.3923V150.513H59.3896L59.4195 159.793Z" fill="#92E3A9" />
            <path
                d="M78.0982 155.61C78.1085 156.347 77.973 157.079 77.6994 157.762C77.4522 158.397 77.075 158.973 76.5924 159.451C76.1145 159.929 75.5488 160.308 74.9269 160.568C73.5815 161.104 72.084 161.104 70.7385 160.568C70.1167 160.308 69.5509 159.929 69.073 159.451C68.5904 158.973 68.2132 158.397 67.9661 157.762C67.4205 156.384 67.4205 154.847 67.9661 153.469C68.2164 152.832 68.5931 152.254 69.073 151.769C69.5509 151.292 70.1167 150.913 70.7385 150.653C72.084 150.117 73.5815 150.117 74.9269 150.653C75.5488 150.913 76.1145 151.292 76.5924 151.769C77.0723 152.254 77.449 152.832 77.6994 153.469C77.9719 154.149 78.1075 154.877 78.0982 155.61ZM77.0212 155.61C77.0226 155.031 76.9247 154.457 76.732 153.911C76.5477 153.39 76.2669 152.909 75.9043 152.493C75.5358 152.069 75.0842 151.727 74.5779 151.488C74.0295 151.24 73.4337 151.116 72.8327 151.126C72.2285 151.116 71.6295 151.24 71.0775 151.488C70.574 151.727 70.1255 152.069 69.7611 152.493C69.4037 152.926 69.1328 153.425 68.9633 153.961C68.5778 155.061 68.5778 156.26 68.9633 157.36C69.1453 157.879 69.4266 158.358 69.7911 158.768C70.1555 159.192 70.6039 159.534 71.1075 159.773C71.6616 160.013 72.2596 160.133 72.8626 160.125C73.4624 160.133 74.0572 160.013 74.6078 159.773C75.114 159.534 75.5657 159.192 75.9342 158.768C76.2987 158.358 76.5799 157.879 76.7619 157.36C76.9491 156.8 77.0369 156.211 77.0212 155.621V155.61Z"
                fill="#92E3A9" />
            <path
                d="M90.7735 152.353C90.4211 151.977 89.9925 151.682 89.5169 151.488C88.9853 151.27 88.4152 151.164 87.8415 151.176C87.2405 151.167 86.6448 151.29 86.0963 151.538C85.5915 151.78 85.1404 152.122 84.7699 152.544C84.4002 152.957 84.1125 153.439 83.9223 153.961C83.5233 155.058 83.5233 156.263 83.9223 157.36C84.1 157.884 84.3831 158.365 84.7538 158.773C85.1244 159.181 85.5747 159.508 86.0763 159.733C86.627 159.973 87.2217 160.093 87.8215 160.085C88.3522 160.09 88.8814 160.029 89.3972 159.904C89.804 159.805 90.1939 159.646 90.5541 159.431V156.324H88.2005V155.409H91.5813V159.994C91.0243 160.329 90.4234 160.583 89.7962 160.748C89.1438 160.912 88.4738 160.993 87.8016 160.99C87.0774 160.998 86.3588 160.862 85.6874 160.588C85.0605 160.337 84.4915 159.958 84.0162 159.475C83.5409 158.992 83.1694 158.416 82.925 157.782C82.6562 157.097 82.5207 156.367 82.5261 155.63C82.52 154.896 82.659 154.168 82.935 153.489C83.1853 152.852 83.562 152.274 84.0419 151.789C84.5198 151.312 85.0855 150.933 85.7073 150.673C86.3734 150.405 87.0844 150.269 87.8016 150.271C88.5238 150.254 89.2423 150.38 89.9158 150.643C90.4935 150.869 91.0195 151.211 91.4616 151.649L90.7735 152.353Z"
                fill="#92E3A9" />
            <path
                d="M97.0163 160.708H95.8894L100.257 150.513H101.255L105.603 160.708H104.456L103.349 158.034H98.1133L97.0163 160.708ZM98.5022 157.079H102.96L100.726 151.669L98.5022 157.079Z"
                fill="#92E3A9" />
            <path
                d="M117.111 159.2V150.513H118.109V160.708H116.822L110.938 151.94V160.708H109.941V150.513H111.227L117.111 159.2Z"
                fill="#92E3A9" />
            <path
                d="M104.965 51.5315C106.744 50.9832 108.653 51.0362 110.4 51.6824C111.058 51.9539 111.706 52.2656 112.394 52.6074C113.082 52.9493 113.641 53.3314 114.259 53.7437C115.505 54.5939 116.658 55.5746 117.7 56.6696C119.94 59.084 121.622 61.9684 122.626 65.1158C123.769 68.7234 124.139 72.5343 123.713 76.2969C123.219 80.5424 121.886 84.645 119.794 88.3629C118.484 90.6502 116.466 92.4411 114.05 93.4607C113.493 93.684 112.919 93.8622 112.334 93.9936C111.784 94.1161 111.223 94.1802 110.659 94.1847C109.623 94.2174 108.594 93.9894 107.667 93.5211C106.893 93.1073 106.243 92.4915 105.785 91.7381C105.327 90.9846 105.078 90.1211 105.064 89.2376C105.01 87.306 105.585 85.4096 106.7 83.8381C108.094 81.7147 109.085 79.3485 109.622 76.86C110.121 74.5458 110.176 72.1563 109.781 69.8215C109.692 69.2685 109.552 68.7054 109.412 68.1725C109.343 67.9111 109.263 67.6497 109.183 67.3882C109.103 67.1268 108.994 66.8553 108.894 66.6039C108.708 66.0967 108.495 65.6 108.256 65.1158C108.006 64.6332 107.747 64.1706 107.478 63.7182C106.378 61.9584 104.985 60.4037 103.359 59.123C102.25 58.3277 101.386 57.2335 100.866 55.9658C100.693 55.4913 100.672 54.974 100.806 54.4868C100.94 53.9997 101.223 53.5675 101.614 53.251C102.043 52.8404 102.535 52.501 103.07 52.2455C103.675 51.941 104.31 51.7017 104.965 51.5315Z"
                fill="#7DB59A" />
            <path
                d="M93.4063 70.9675C94.7715 72.2424 95.6826 73.9349 95.9991 75.7838C96.099 76.5004 96.1589 77.2222 96.1786 77.9456C96.2185 78.6791 96.2185 79.4142 96.1786 80.1477C96.1188 80.8817 96.0291 81.6257 95.8994 82.3698C95.7659 83.1234 95.5894 83.8688 95.3709 84.602C94.4259 87.7686 92.7903 90.6819 90.584 93.1286C88.0552 95.9181 84.9736 98.1413 81.5388 99.6542C77.6422 101.378 73.4376 102.281 69.1827 102.309C66.5489 102.316 63.9865 101.446 61.8926 99.8352C60.9959 99.198 60.2447 98.375 59.6892 97.4212C59.1336 96.4674 58.7866 95.405 58.6715 94.305C58.6432 93.4221 58.8504 92.5478 59.2714 91.7732C59.6923 90.9986 60.3117 90.352 61.065 89.9009C61.8343 89.4202 62.6817 89.0798 63.5681 88.8954C64.5491 88.6736 65.5573 88.5991 66.5599 88.6742C69.0821 88.8453 71.6135 88.5314 74.0194 87.7492C75.1541 87.3796 76.2524 86.9049 77.3004 86.3314C77.819 86.0298 78.2977 85.7181 78.7863 85.3963C79.2565 85.0866 79.7093 84.7509 80.1427 84.3908C80.9907 83.6766 81.7688 82.882 82.4662 82.0179C82.8053 81.5956 83.1244 81.1431 83.4635 80.7007C83.8026 80.2582 84.032 79.8158 84.2813 79.3332C85.244 77.4935 85.885 75.5002 86.1761 73.4409C86.2765 72.6789 86.4708 71.9324 86.7545 71.2188C86.8741 70.9179 87.0141 70.6257 87.1734 70.3441C87.2432 70.2234 87.3229 70.1027 87.4027 69.9921L87.652 69.6703C87.978 69.2899 88.4125 69.02 88.8961 68.8977C89.3798 68.7753 89.8891 68.8064 90.3547 68.9866C90.6262 69.0659 90.8899 69.1702 91.1425 69.2983C91.4187 69.4298 91.6853 69.5811 91.9403 69.7508C92.4672 70.107 92.9583 70.5145 93.4063 70.9675Z"
                fill="#92E3A9" />
            <path
                d="M70.9578 70.5956C70.5353 72.422 69.5341 74.0598 68.1057 75.2611C65.7665 77.0831 63.0714 78.3854 60.1974 79.082C57.005 79.8298 53.6881 79.8573 50.4839 79.1624C46.8167 78.3562 43.3602 76.7764 40.3418 74.5271C36.9155 71.9749 34.0414 68.7452 31.8949 65.0352C30.5674 62.7411 30.0374 60.0659 30.3891 57.4337C30.3891 57.132 30.4788 56.8304 30.5386 56.5388C30.5985 56.2472 30.6982 55.9556 30.7879 55.674C30.9663 55.1396 31.1899 54.6215 31.4561 54.1256C31.9548 53.2213 32.6631 52.4519 33.5205 51.8833C34.2654 51.4166 35.1206 51.1594 35.9973 51.1381C36.8741 51.1169 37.7406 51.3325 38.5068 51.7627C39.3122 52.1761 40.0355 52.7351 40.6409 53.4117C40.9783 53.7634 41.2853 54.1435 41.5585 54.5479C41.8351 54.9759 42.0881 55.419 42.3164 55.8752C43.4261 58.1561 44.9557 60.2034 46.824 61.9081C48.5708 63.4989 50.6013 64.7409 52.8076 65.5682C53.8409 65.9724 54.9092 66.2787 55.9988 66.4831C57.0536 66.6548 58.1224 66.7222 59.1901 66.6842C60.2268 66.646 61.258 66.5147 62.2716 66.2921C63.2687 66.0678 64.2459 65.7618 65.1936 65.3771C65.9008 65.0852 66.6411 64.8826 67.3976 64.7738C67.7279 64.7275 68.0614 64.7074 68.3948 64.7134C68.6697 64.7165 68.9436 64.7468 69.2126 64.804C69.7099 64.8915 70.1682 65.1316 70.5252 65.4915C70.8821 65.8514 71.1203 66.3136 71.2071 66.815C71.4238 68.0772 71.3383 69.3734 70.9578 70.5956Z"
                fill="#7DB59A" />
            <path
                d="M60.0576 50.7774C58.2794 51.3355 56.3676 51.2824 54.6225 50.6265C53.9643 50.3551 53.3161 50.0434 52.628 49.7015C51.9873 49.3555 51.3648 48.9762 50.7631 48.5653C49.5171 47.7151 48.3638 46.7343 47.3225 45.6393C45.0844 43.2273 43.4022 40.3466 42.396 37.2032C41.2556 33.5917 40.8818 29.7787 41.299 26.012C41.7953 21.767 43.1278 17.6647 45.2183 13.9461C46.5324 11.6561 48.5532 9.8623 50.9725 8.83814C51.528 8.61351 52.1019 8.43859 52.6878 8.31532C53.2336 8.18469 53.7923 8.11721 54.3532 8.11421C55.3904 8.08542 56.4185 8.3169 57.345 8.78787C58.1214 9.19913 58.7731 9.8143 59.2313 10.5683C59.6895 11.3223 59.9371 12.1871 59.9479 13.0713C59.9956 15.002 59.4218 16.8964 58.3124 18.4708C56.9084 20.5854 55.9168 22.9502 55.3904 25.4389C54.8927 27.7531 54.8351 30.1415 55.2208 32.4774C55.3206 33.0404 55.4602 33.5935 55.5998 34.1264C55.6696 34.3979 55.7494 34.6593 55.8292 34.9207C55.909 35.1821 56.0087 35.4436 56.1084 35.695C56.3079 36.2078 56.5173 36.7004 56.7567 37.1831C56.996 37.6657 57.2652 38.1383 57.5345 38.5807C58.6311 40.3429 60.0251 41.898 61.6532 43.1758C62.7631 43.9743 63.6272 45.072 64.1464 46.3431C64.3184 46.8186 64.3377 47.3366 64.2017 47.8238C64.0657 48.311 63.7812 48.7427 63.3884 49.058C62.9581 49.463 62.4709 49.8018 61.9425 50.0635C61.3411 50.3682 60.7092 50.6075 60.0576 50.7774Z"
                fill="#92E3A9" />
            <path
                d="M71.606 31.3514C70.2467 30.0718 69.3367 28.3815 69.0131 26.5351C68.9134 25.8111 68.8635 25.1072 68.8336 24.3732C68.8037 23.6392 68.8336 22.8951 68.8336 22.1611C68.8336 21.4271 68.9832 20.6931 69.1129 19.939C69.2453 19.1884 69.4218 18.4464 69.6414 17.7168C70.5885 14.5482 72.2237 11.632 74.4283 9.18018C76.9514 6.3886 80.0301 4.165 83.4635 2.65452C87.3636 0.93115 91.5714 0.0278918 95.8296 0C98.4586 0.00359132 101.015 0.872077 103.11 2.47354C104.008 3.10932 104.76 3.93198 105.316 4.88602C105.871 5.84007 106.218 6.90328 106.331 8.00377C106.362 8.8873 106.157 9.76301 105.738 10.5395C105.319 11.316 104.7 11.9647 103.947 12.4178C103.172 12.8868 102.327 13.2264 101.444 13.4233C100.463 13.6406 99.4546 13.7118 98.4524 13.6345C95.9336 13.4679 93.4062 13.7817 91.0028 14.5596C89.8637 14.9301 88.7619 15.4082 87.7118 15.9874C87.2032 16.279 86.7146 16.5907 86.2359 16.9124C85.7658 17.2221 85.313 17.5578 84.8796 17.9179C84.0291 18.6294 83.2507 19.4243 82.556 20.2909C82.2169 20.7132 81.8978 21.1657 81.5587 21.6081C81.2614 22.0519 80.9884 22.5117 80.741 22.9856C79.7719 24.8226 79.1305 26.817 78.8461 28.8778C78.7432 29.6394 78.549 30.3856 78.2678 31.1C78.1502 31.3986 78.0101 31.6876 77.8489 31.9647C77.7772 32.0874 77.6973 32.2051 77.6095 32.3167C77.532 32.4282 77.4488 32.5356 77.3602 32.6384C77.0371 33.0198 76.6049 33.2911 76.1229 33.4153C75.6409 33.5395 75.1326 33.5105 74.6676 33.3322C74.3958 33.2493 74.1321 33.1416 73.8798 33.0104C73.6056 32.8785 73.3393 32.7308 73.082 32.568C72.5559 32.2064 72.0621 31.7993 71.606 31.3514Z"
                fill="#7DB59A" />
            <path
                d="M94.0546 31.7233C94.4744 29.8958 95.4762 28.2571 96.9069 27.0578C99.2595 25.2295 101.973 23.9301 104.865 23.247C108.056 22.4905 111.374 22.4596 114.578 23.1565C118.248 23.9553 121.707 25.5282 124.731 27.7717C128.155 30.3303 131.028 33.5629 133.177 37.2737C134.505 39.5641 135.035 42.2361 134.683 44.8651C134.646 45.1695 134.593 45.4716 134.524 45.7701C134.454 46.0617 134.374 46.3533 134.284 46.6248C134.105 47.1637 133.878 47.6853 133.606 48.1833C133.111 49.0844 132.406 49.8506 131.552 50.4155C130.808 50.8837 129.953 51.1428 129.076 51.1658C128.2 51.1887 127.333 50.9748 126.566 50.5462C125.762 50.1256 125.039 49.5638 124.431 48.8871C124.096 48.5298 123.79 48.1465 123.514 47.7408C123.234 47.313 122.978 46.8699 122.746 46.4136C121.641 44.1326 120.114 42.0851 118.248 40.3806C116.504 38.7893 114.472 37.5502 112.265 36.7306C110.215 35.9823 108.041 35.6409 105.862 35.7252C104.826 35.7634 103.794 35.8947 102.781 36.1173C101.784 36.3383 100.807 36.6409 99.8587 37.0223C99.1481 37.3143 98.4046 37.5169 97.6448 37.6256C97.3142 37.6703 96.9811 37.6939 96.6476 37.6959C96.3697 37.6873 96.093 37.6571 95.8198 37.6055C95.3214 37.5207 94.8615 37.2815 94.5041 36.9211C94.1467 36.5607 93.9094 36.097 93.8253 35.5945C93.5875 34.3046 93.6662 32.9755 94.0546 31.7233Z"
                fill="#92E3A9" />

        </g>
    </symbol>
    <symbol id="sloganWhite" viewBox="0 0 165 161">
        <g>
            <path
                d="M16.2179 124.52C15.6064 123.652 14.7817 122.959 13.8245 122.509C12.8883 122.068 11.8664 121.841 10.8327 121.846C9.69806 121.837 8.57618 122.088 7.55167 122.58C6.56428 123.071 5.68309 123.755 4.95881 124.591C4.22371 125.433 3.64896 126.404 3.26344 127.456C2.86205 128.547 2.65609 129.701 2.65512 130.865C2.64675 132.069 2.85278 133.264 3.26344 134.394C3.64487 135.437 4.2165 136.399 4.94882 137.23C5.66992 138.035 6.54514 138.685 7.52179 139.14C8.60054 139.618 9.76793 139.858 10.946 139.844C12.1241 139.83 13.2856 139.563 14.353 139.06C15.4204 138.544 16.3606 137.795 17.1055 136.868L19.0102 138.487C18.1129 139.733 16.9103 140.724 15.5198 141.362C14.0571 141.988 12.4813 142.3 10.8925 142.277C9.41739 142.287 7.9555 141.996 6.59434 141.423C5.28649 140.871 4.10213 140.06 3.11182 139.038C2.12151 138.015 1.34551 136.802 0.830111 135.47C-0.276704 132.557 -0.276704 129.334 0.830111 126.421C1.32866 125.079 2.09095 123.854 3.07122 122.817C4.05149 121.78 5.22953 120.954 6.5345 120.388C7.92081 119.79 9.41485 119.489 10.9224 119.503C12.3587 119.503 13.7824 119.772 15.1209 120.297C16.4635 120.831 17.6335 121.729 18.5017 122.891L16.2179 124.52Z"
                fill="#fff" />
            <path
                d="M34.7474 142.237C33.2071 142.252 31.679 141.962 30.2497 141.383C28.9251 140.836 27.7216 140.03 26.7094 139.01C25.6968 137.982 24.9028 136.757 24.3758 135.41C23.2774 132.495 23.2774 129.275 24.3758 126.36C24.9028 125.013 25.6968 123.788 26.7094 122.761C27.7216 121.741 28.9251 120.934 30.2497 120.388C33.1357 119.254 36.3391 119.254 39.2251 120.388C40.5527 120.934 41.7594 121.741 42.7754 122.761C43.7881 123.786 44.5793 125.012 45.099 126.36C46.2106 129.273 46.2106 132.498 45.099 135.41C44.5793 136.759 43.7881 137.984 42.7754 139.01C41.7594 140.03 40.5527 140.836 39.2251 141.383C37.8023 141.96 36.281 142.25 34.7474 142.237ZM34.7474 139.854C35.8932 139.872 37.03 139.648 38.0846 139.196C39.1392 138.744 40.0882 138.074 40.8706 137.23C41.6268 136.4 42.2161 135.43 42.6059 134.374C43.4532 132.106 43.4532 129.604 42.6059 127.336C42.2161 126.28 41.6268 125.31 40.8706 124.48C40.1141 123.664 39.2016 123.011 38.188 122.56C37.1011 122.095 35.9328 121.856 34.7524 121.856C33.572 121.856 32.4036 122.095 31.3168 122.56C30.3018 123.008 29.3888 123.662 28.6341 124.48C27.8783 125.312 27.2861 126.281 26.8889 127.336C26.055 129.607 26.055 132.103 26.8889 134.374C27.2861 135.429 27.8783 136.398 28.6341 137.23C29.3888 138.048 30.3018 138.702 31.3168 139.15C32.3949 139.64 33.5649 139.891 34.7474 139.884V139.854Z"
                fill="#fff" />
            <path
                d="M52.3188 120.066H56.0985L63.3686 137.009H63.4284L70.7583 120.066H74.4582V141.685H71.955V123.586H71.8952L64.2062 141.685H62.6605L54.9715 123.586H54.9117V141.685H52.3687L52.3188 120.066Z"
                fill="#fff" />
            <path
                d="M82.0574 120.066H88.4199C89.3682 120.064 90.3141 120.161 91.2422 120.358C92.097 120.534 92.9097 120.875 93.6356 121.363C94.3338 121.823 94.9064 122.452 95.301 123.193C95.7448 124.066 95.961 125.038 95.9293 126.019C95.965 127.039 95.7346 128.052 95.2612 128.955C94.8432 129.694 94.2549 130.322 93.5459 130.785C92.8454 131.232 92.0724 131.552 91.2621 131.73C90.4861 131.905 89.6938 131.996 88.8986 132.001H84.6004V141.714H82.0574V120.066ZM84.6004 129.598H88.9086C90.0086 129.649 91.0957 129.342 92.0101 128.723C92.386 128.382 92.6866 127.965 92.8923 127.499C93.098 127.033 93.2044 126.529 93.2044 126.019C93.2044 125.508 93.098 125.004 92.8923 124.538C92.6866 124.072 92.386 123.655 92.0101 123.314C91.0925 122.703 90.007 122.4 88.9086 122.449H84.6104L84.6004 129.598Z"
                fill="#fff" />
            <path
                d="M107.009 120.066H109.402L118.517 141.685H115.525L113.351 136.376H102.651L100.437 141.685H97.5647L107.009 120.066ZM108.156 123.364H108.096L103.648 133.993H112.404L108.156 123.364Z"
                fill="#fff" />
            <path
                d="M123.633 120.066H126.805L139.221 138.025H139.28V120.066H141.823V141.685H138.622L126.196 123.726H126.137V141.685H123.594L123.633 120.066Z"
                fill="#fff" />
            <path
                d="M154.529 132.374L146.551 120.066H149.742L155.725 129.84L161.938 120.066H165L157.022 132.374V141.685H154.529V132.374Z"
                fill="#fff" />
            <path
                d="M52.3788 152.152C52.1573 151.843 51.8669 151.592 51.5311 151.417C51.1495 151.219 50.7238 151.122 50.2945 151.136C50.0381 151.138 49.7831 151.175 49.5366 151.247C49.2848 151.321 49.0483 151.44 48.8385 151.599C48.628 151.76 48.4545 151.966 48.3299 152.202C48.194 152.462 48.1254 152.752 48.1304 153.046C48.122 153.327 48.1874 153.604 48.3199 153.851C48.4443 154.064 48.6106 154.248 48.8085 154.394C49.0245 154.547 49.2591 154.672 49.5066 154.766L50.3244 155.047C50.6834 155.168 51.0325 155.289 51.3915 155.429C51.7494 155.549 52.0861 155.726 52.3887 155.952C52.6797 156.171 52.9183 156.453 53.0868 156.777C53.281 157.166 53.3736 157.598 53.3561 158.034C53.3703 158.49 53.2708 158.943 53.0669 159.351C52.888 159.708 52.6325 160.021 52.3189 160.266C52.0025 160.508 51.644 160.689 51.2618 160.799C50.8581 160.926 50.4382 160.994 50.0152 161C49.7072 161 49.4 160.969 49.0978 160.909C48.7993 160.848 48.5084 160.753 48.2302 160.628C47.9532 160.502 47.6921 160.343 47.4523 160.155C47.2229 159.954 47.0126 159.732 46.824 159.492L47.7116 158.828C47.9452 159.202 48.2629 159.516 48.639 159.743C49.0586 159.991 49.5387 160.117 50.0252 160.105C50.2922 160.104 50.5576 160.063 50.813 159.984C51.0745 159.91 51.3187 159.783 51.5311 159.612C51.7509 159.446 51.9314 159.234 52.0596 158.989C52.197 158.72 52.2686 158.422 52.2686 158.119C52.2686 157.817 52.197 157.518 52.0596 157.249C51.926 157.011 51.738 156.807 51.5111 156.656C51.2687 156.488 51.0033 156.356 50.7233 156.264C50.4341 156.153 50.125 156.053 49.7959 155.942C49.4566 155.842 49.1235 155.721 48.7986 155.58C48.4794 155.456 48.1828 155.279 47.921 155.057C47.6621 154.839 47.4514 154.569 47.3027 154.263C47.1332 153.899 47.0512 153.499 47.0633 153.097C47.0509 152.655 47.1542 152.218 47.3625 151.83C47.5457 151.481 47.8048 151.178 48.1204 150.945C48.4381 150.718 48.7924 150.548 49.1676 150.442C49.5349 150.34 49.9136 150.286 50.2945 150.281C50.9002 150.267 51.5008 150.395 52.0496 150.653C52.4793 150.848 52.8557 151.145 53.1467 151.518L52.3788 152.152Z"
                fill="#fff" />
            <path d="M59.4195 159.793H64.1365V160.708H58.3923V150.513H59.3896L59.4195 159.793Z" fill="#fff" />
            <path
                d="M78.0982 155.61C78.1085 156.347 77.973 157.079 77.6994 157.762C77.4522 158.397 77.075 158.973 76.5924 159.451C76.1145 159.929 75.5488 160.308 74.9269 160.568C73.5815 161.104 72.084 161.104 70.7385 160.568C70.1167 160.308 69.5509 159.929 69.073 159.451C68.5904 158.973 68.2132 158.397 67.9661 157.762C67.4205 156.384 67.4205 154.847 67.9661 153.469C68.2164 152.832 68.5931 152.254 69.073 151.769C69.5509 151.292 70.1167 150.913 70.7385 150.653C72.084 150.117 73.5815 150.117 74.9269 150.653C75.5488 150.913 76.1145 151.292 76.5924 151.769C77.0723 152.254 77.449 152.832 77.6994 153.469C77.9719 154.149 78.1075 154.877 78.0982 155.61ZM77.0212 155.61C77.0226 155.031 76.9247 154.457 76.732 153.911C76.5477 153.39 76.2669 152.909 75.9043 152.493C75.5358 152.069 75.0842 151.727 74.5779 151.488C74.0295 151.24 73.4337 151.116 72.8327 151.126C72.2285 151.116 71.6295 151.24 71.0775 151.488C70.574 151.727 70.1255 152.069 69.7611 152.493C69.4037 152.926 69.1328 153.425 68.9633 153.961C68.5778 155.061 68.5778 156.26 68.9633 157.36C69.1453 157.879 69.4266 158.358 69.7911 158.768C70.1555 159.192 70.6039 159.534 71.1075 159.773C71.6616 160.013 72.2596 160.133 72.8626 160.125C73.4624 160.133 74.0572 160.013 74.6078 159.773C75.114 159.534 75.5657 159.192 75.9342 158.768C76.2987 158.358 76.5799 157.879 76.7619 157.36C76.9491 156.8 77.0369 156.211 77.0212 155.621V155.61Z"
                fill="#fff" />
            <path
                d="M90.7735 152.353C90.4211 151.977 89.9925 151.682 89.5169 151.488C88.9853 151.27 88.4152 151.164 87.8415 151.176C87.2405 151.167 86.6448 151.29 86.0963 151.538C85.5915 151.78 85.1404 152.122 84.7699 152.544C84.4002 152.957 84.1125 153.439 83.9223 153.961C83.5233 155.058 83.5233 156.263 83.9223 157.36C84.1 157.884 84.3831 158.365 84.7538 158.773C85.1244 159.181 85.5747 159.508 86.0763 159.733C86.627 159.973 87.2217 160.093 87.8215 160.085C88.3522 160.09 88.8814 160.029 89.3972 159.904C89.804 159.805 90.1939 159.646 90.5541 159.431V156.324H88.2005V155.409H91.5813V159.994C91.0243 160.329 90.4234 160.583 89.7962 160.748C89.1438 160.912 88.4738 160.993 87.8016 160.99C87.0774 160.998 86.3588 160.862 85.6874 160.588C85.0605 160.337 84.4915 159.958 84.0162 159.475C83.5409 158.992 83.1694 158.416 82.925 157.782C82.6562 157.097 82.5207 156.367 82.5261 155.63C82.52 154.896 82.659 154.168 82.935 153.489C83.1853 152.852 83.562 152.274 84.0419 151.789C84.5198 151.312 85.0855 150.933 85.7073 150.673C86.3734 150.405 87.0844 150.269 87.8016 150.271C88.5238 150.254 89.2423 150.38 89.9158 150.643C90.4935 150.869 91.0195 151.211 91.4616 151.649L90.7735 152.353Z"
                fill="#fff" />
            <path
                d="M97.0163 160.708H95.8894L100.257 150.513H101.255L105.603 160.708H104.456L103.349 158.034H98.1133L97.0163 160.708ZM98.5022 157.079H102.96L100.726 151.669L98.5022 157.079Z"
                fill="#fff" />
            <path
                d="M117.111 159.2V150.513H118.109V160.708H116.822L110.938 151.94V160.708H109.941V150.513H111.227L117.111 159.2Z"
                fill="#fff" />
            <path
                d="M104.965 51.5315C106.744 50.9832 108.653 51.0362 110.4 51.6824C111.058 51.9539 111.706 52.2656 112.394 52.6074C113.082 52.9493 113.641 53.3314 114.259 53.7437C115.505 54.5939 116.658 55.5746 117.7 56.6696C119.94 59.084 121.622 61.9684 122.626 65.1158C123.769 68.7234 124.139 72.5343 123.713 76.2969C123.219 80.5424 121.886 84.645 119.794 88.3629C118.484 90.6502 116.466 92.4411 114.05 93.4607C113.493 93.684 112.919 93.8622 112.334 93.9936C111.784 94.1161 111.223 94.1802 110.659 94.1847C109.623 94.2174 108.594 93.9894 107.667 93.5211C106.893 93.1073 106.243 92.4915 105.785 91.7381C105.327 90.9846 105.078 90.1211 105.064 89.2376C105.01 87.306 105.585 85.4096 106.7 83.8381C108.094 81.7147 109.085 79.3485 109.622 76.86C110.121 74.5458 110.176 72.1563 109.781 69.8215C109.692 69.2685 109.552 68.7054 109.412 68.1725C109.343 67.9111 109.263 67.6497 109.183 67.3882C109.103 67.1268 108.994 66.8553 108.894 66.6039C108.708 66.0967 108.495 65.6 108.256 65.1158C108.006 64.6332 107.747 64.1706 107.478 63.7182C106.378 61.9584 104.985 60.4037 103.359 59.123C102.25 58.3277 101.386 57.2335 100.866 55.9658C100.693 55.4913 100.672 54.974 100.806 54.4868C100.94 53.9997 101.223 53.5675 101.614 53.251C102.043 52.8404 102.535 52.501 103.07 52.2455C103.675 51.941 104.31 51.7017 104.965 51.5315Z"
                fill="#fff" />
            <path
                d="M93.4063 70.9675C94.7715 72.2424 95.6826 73.9349 95.9991 75.7838C96.099 76.5004 96.1589 77.2222 96.1786 77.9456C96.2185 78.6791 96.2185 79.4142 96.1786 80.1477C96.1188 80.8817 96.0291 81.6257 95.8994 82.3698C95.7659 83.1234 95.5894 83.8688 95.3709 84.602C94.4259 87.7686 92.7903 90.6819 90.584 93.1286C88.0552 95.9181 84.9736 98.1413 81.5388 99.6542C77.6422 101.378 73.4376 102.281 69.1827 102.309C66.5489 102.316 63.9865 101.446 61.8926 99.8352C60.9959 99.198 60.2447 98.375 59.6892 97.4212C59.1336 96.4674 58.7866 95.405 58.6715 94.305C58.6432 93.4221 58.8504 92.5478 59.2714 91.7732C59.6923 90.9986 60.3117 90.352 61.065 89.9009C61.8343 89.4202 62.6817 89.0798 63.5681 88.8954C64.5491 88.6736 65.5573 88.5991 66.5599 88.6742C69.0821 88.8453 71.6135 88.5314 74.0194 87.7492C75.1541 87.3796 76.2524 86.9049 77.3004 86.3314C77.819 86.0298 78.2977 85.7181 78.7863 85.3963C79.2565 85.0866 79.7093 84.7509 80.1427 84.3908C80.9907 83.6766 81.7688 82.882 82.4662 82.0179C82.8053 81.5956 83.1244 81.1431 83.4635 80.7007C83.8026 80.2582 84.032 79.8158 84.2813 79.3332C85.244 77.4935 85.885 75.5002 86.1761 73.4409C86.2765 72.6789 86.4708 71.9324 86.7545 71.2188C86.8741 70.9179 87.0141 70.6257 87.1734 70.3441C87.2432 70.2234 87.3229 70.1027 87.4027 69.9921L87.652 69.6703C87.978 69.2899 88.4125 69.02 88.8961 68.8977C89.3798 68.7753 89.8891 68.8064 90.3547 68.9866C90.6262 69.0659 90.8899 69.1702 91.1425 69.2983C91.4187 69.4298 91.6853 69.5811 91.9403 69.7508C92.4672 70.107 92.9583 70.5145 93.4063 70.9675Z"
                fill="#fff" />
            <path
                d="M70.9578 70.5956C70.5353 72.422 69.5341 74.0598 68.1057 75.2611C65.7665 77.0831 63.0714 78.3854 60.1974 79.082C57.005 79.8298 53.6881 79.8573 50.4839 79.1624C46.8167 78.3562 43.3602 76.7764 40.3418 74.5271C36.9155 71.9749 34.0414 68.7452 31.8949 65.0352C30.5674 62.7411 30.0374 60.0659 30.3891 57.4337C30.3891 57.132 30.4788 56.8304 30.5386 56.5388C30.5985 56.2472 30.6982 55.9556 30.7879 55.674C30.9663 55.1396 31.1899 54.6215 31.4561 54.1256C31.9548 53.2213 32.6631 52.4519 33.5205 51.8833C34.2654 51.4166 35.1206 51.1594 35.9973 51.1381C36.8741 51.1169 37.7406 51.3325 38.5068 51.7627C39.3122 52.1761 40.0355 52.7351 40.6409 53.4117C40.9783 53.7634 41.2853 54.1435 41.5585 54.5479C41.8351 54.9759 42.0881 55.419 42.3164 55.8752C43.4261 58.1561 44.9557 60.2034 46.824 61.9081C48.5708 63.4989 50.6013 64.7409 52.8076 65.5682C53.8409 65.9724 54.9092 66.2787 55.9988 66.4831C57.0536 66.6548 58.1224 66.7222 59.1901 66.6842C60.2268 66.646 61.258 66.5147 62.2716 66.2921C63.2687 66.0678 64.2459 65.7618 65.1936 65.3771C65.9008 65.0852 66.6411 64.8826 67.3976 64.7738C67.7279 64.7275 68.0614 64.7074 68.3948 64.7134C68.6697 64.7165 68.9436 64.7468 69.2126 64.804C69.7099 64.8915 70.1682 65.1316 70.5252 65.4915C70.8821 65.8514 71.1203 66.3136 71.2071 66.815C71.4238 68.0772 71.3383 69.3734 70.9578 70.5956Z"
                fill="#fff" />
            <path
                d="M60.0576 50.7774C58.2794 51.3355 56.3676 51.2824 54.6225 50.6265C53.9643 50.3551 53.3161 50.0434 52.628 49.7015C51.9873 49.3555 51.3648 48.9762 50.7631 48.5653C49.5171 47.7151 48.3638 46.7343 47.3225 45.6393C45.0844 43.2273 43.4022 40.3466 42.396 37.2032C41.2556 33.5917 40.8818 29.7787 41.299 26.012C41.7953 21.767 43.1278 17.6647 45.2183 13.9461C46.5324 11.6561 48.5532 9.8623 50.9725 8.83814C51.528 8.61351 52.1019 8.43859 52.6878 8.31532C53.2336 8.18469 53.7923 8.11721 54.3532 8.11421C55.3904 8.08542 56.4185 8.3169 57.345 8.78787C58.1214 9.19913 58.7731 9.8143 59.2313 10.5683C59.6895 11.3223 59.9371 12.1871 59.9479 13.0713C59.9956 15.002 59.4218 16.8964 58.3124 18.4708C56.9084 20.5854 55.9168 22.9502 55.3904 25.4389C54.8927 27.7531 54.8351 30.1415 55.2208 32.4774C55.3206 33.0404 55.4602 33.5935 55.5998 34.1264C55.6696 34.3979 55.7494 34.6593 55.8292 34.9207C55.909 35.1821 56.0087 35.4436 56.1084 35.695C56.3079 36.2078 56.5173 36.7004 56.7567 37.1831C56.996 37.6657 57.2652 38.1383 57.5345 38.5807C58.6311 40.3429 60.0251 41.898 61.6532 43.1758C62.7631 43.9743 63.6272 45.072 64.1464 46.3431C64.3184 46.8186 64.3377 47.3366 64.2017 47.8238C64.0657 48.311 63.7812 48.7427 63.3884 49.058C62.9581 49.463 62.4709 49.8018 61.9425 50.0635C61.3411 50.3682 60.7092 50.6075 60.0576 50.7774Z"
                fill="#fff" />
            <path
                d="M71.606 31.3514C70.2467 30.0718 69.3367 28.3815 69.0131 26.5351C68.9134 25.8111 68.8635 25.1072 68.8336 24.3732C68.8037 23.6392 68.8336 22.8951 68.8336 22.1611C68.8336 21.4271 68.9832 20.6931 69.1129 19.939C69.2453 19.1884 69.4218 18.4464 69.6414 17.7168C70.5885 14.5482 72.2237 11.632 74.4283 9.18018C76.9514 6.3886 80.0301 4.165 83.4635 2.65452C87.3636 0.93115 91.5714 0.0278918 95.8296 0C98.4586 0.00359132 101.015 0.872077 103.11 2.47354C104.008 3.10932 104.76 3.93198 105.316 4.88602C105.871 5.84007 106.218 6.90328 106.331 8.00377C106.362 8.8873 106.157 9.76301 105.738 10.5395C105.319 11.316 104.7 11.9647 103.947 12.4178C103.172 12.8868 102.327 13.2264 101.444 13.4233C100.463 13.6406 99.4546 13.7118 98.4524 13.6345C95.9336 13.4679 93.4062 13.7817 91.0028 14.5596C89.8637 14.9301 88.7619 15.4082 87.7118 15.9874C87.2032 16.279 86.7146 16.5907 86.2359 16.9124C85.7658 17.2221 85.313 17.5578 84.8796 17.9179C84.0291 18.6294 83.2507 19.4243 82.556 20.2909C82.2169 20.7132 81.8978 21.1657 81.5587 21.6081C81.2614 22.0519 80.9884 22.5117 80.741 22.9856C79.7719 24.8226 79.1305 26.817 78.8461 28.8778C78.7432 29.6394 78.549 30.3856 78.2678 31.1C78.1502 31.3986 78.0101 31.6876 77.8489 31.9647C77.7772 32.0874 77.6973 32.2051 77.6095 32.3167C77.532 32.4282 77.4488 32.5356 77.3602 32.6384C77.0371 33.0198 76.6049 33.2911 76.1229 33.4153C75.6409 33.5395 75.1326 33.5105 74.6676 33.3322C74.3958 33.2493 74.1321 33.1416 73.8798 33.0104C73.6056 32.8785 73.3393 32.7308 73.082 32.568C72.5559 32.2064 72.0621 31.7993 71.606 31.3514Z"
                fill="#fff" />
            <path
                d="M94.0546 31.7233C94.4744 29.8958 95.4762 28.2571 96.9069 27.0578C99.2595 25.2295 101.973 23.9301 104.865 23.247C108.056 22.4905 111.374 22.4596 114.578 23.1565C118.248 23.9553 121.707 25.5282 124.731 27.7717C128.155 30.3303 131.028 33.5629 133.177 37.2737C134.505 39.5641 135.035 42.2361 134.683 44.8651C134.646 45.1695 134.593 45.4716 134.524 45.7701C134.454 46.0617 134.374 46.3533 134.284 46.6248C134.105 47.1637 133.878 47.6853 133.606 48.1833C133.111 49.0844 132.406 49.8506 131.552 50.4155C130.808 50.8837 129.953 51.1428 129.076 51.1658C128.2 51.1887 127.333 50.9748 126.566 50.5462C125.762 50.1256 125.039 49.5638 124.431 48.8871C124.096 48.5298 123.79 48.1465 123.514 47.7408C123.234 47.313 122.978 46.8699 122.746 46.4136C121.641 44.1326 120.114 42.0851 118.248 40.3806C116.504 38.7893 114.472 37.5502 112.265 36.7306C110.215 35.9823 108.041 35.6409 105.862 35.7252C104.826 35.7634 103.794 35.8947 102.781 36.1173C101.784 36.3383 100.807 36.6409 99.8587 37.0223C99.1481 37.3143 98.4046 37.5169 97.6448 37.6256C97.3142 37.6703 96.9811 37.6939 96.6476 37.6959C96.3697 37.6873 96.093 37.6571 95.8198 37.6055C95.3214 37.5207 94.8615 37.2815 94.5041 36.9211C94.1467 36.5607 93.9094 36.097 93.8253 35.5945C93.5875 34.3046 93.6662 32.9755 94.0546 31.7233Z"
                fill="#fff" />

        </g>
    </symbol>
</svg>